<svg width="706" height="706" viewBox="0 0 706 706" fill="none" xmlns="http://www.w3.org/2000/svg">
<g filter="url(#filter0_d_1_3)">
<path d="M672.953 237.908L683.402 179.394C685.323 168.634 677.05 158.754 666.121 158.754H556.685L578.076 38.9595C579.997 28.2001 571.725 18.32 560.796 18.32H501.357C497.236 18.3201 493.247 19.7697 490.088 22.415C486.928 25.0603 484.8 28.7327 484.076 32.7891L461.582 158.754H317.293L338.684 38.9595C340.606 28.2001 332.334 18.32 321.403 18.32H261.965C257.844 18.3201 253.855 19.7697 250.696 22.415C247.536 25.0603 245.408 28.7327 244.684 32.7891L222.19 158.754H106.484C102.363 158.754 98.3737 160.204 95.2144 162.849C92.0551 165.495 89.927 169.167 89.2028 173.223L78.7536 231.738C76.8329 242.497 85.1053 252.377 96.0343 252.377H205.471L172.034 439.623H56.328C52.2075 439.623 48.2182 441.073 45.0589 443.718C41.8996 446.363 39.7715 450.036 39.0473 454.092L28.5981 512.606C26.6774 523.366 34.9498 533.246 45.8788 533.246H155.315L133.924 653.041C132.003 663.8 140.275 673.68 151.204 673.68H210.643C214.764 673.68 218.753 672.23 221.912 669.585C225.072 666.94 227.2 663.267 227.924 659.211L250.42 533.246H394.707L373.316 653.041C371.394 663.8 379.666 673.68 390.597 673.68H450.035C454.156 673.68 458.145 672.23 461.304 669.585C464.464 666.94 466.592 663.267 467.316 659.211L489.81 533.246H605.517C609.637 533.246 613.626 531.796 616.786 529.151C619.945 526.505 622.073 522.833 622.797 518.777L633.246 460.262C635.167 449.503 626.895 439.623 615.966 439.623H506.529L539.966 252.377H655.672C659.793 252.377 663.782 250.927 666.941 248.282C670.1 245.637 672.229 241.964 672.953 237.908ZM411.426 439.623H267.139L300.575 252.377H444.863L411.426 439.623Z" fill="url(#paint0_linear_1_3)"/>
<path d="M686.355 179.921L683.441 179.401L686.355 179.921C688.604 167.323 678.918 155.754 666.121 155.754H560.268L581.03 39.4868C583.279 26.8887 573.592 15.32 560.796 15.32H501.357C496.532 15.3201 491.861 17.0174 488.162 20.1148C484.462 23.2122 481.971 27.5122 481.123 32.2619L459.07 155.754H320.876L341.637 39.4871C341.637 39.487 341.637 39.4869 341.637 39.4868C343.888 26.8884 334.201 15.32 321.403 15.32H261.965C257.14 15.3201 252.469 17.0174 248.77 20.1148C245.07 23.2122 242.579 27.5122 241.731 32.2619L219.678 155.754H106.484C101.659 155.754 96.9877 157.452 93.2885 160.549C89.5892 163.646 87.0974 167.947 86.2495 172.696L75.8003 231.21L75.8003 231.21C73.5513 243.808 83.2374 255.377 96.0343 255.377H201.887L169.522 436.623H56.328C51.5032 436.623 46.8322 438.32 43.133 441.418C39.4337 444.515 36.9419 448.815 36.094 453.565L25.6448 512.079L28.5981 512.606L25.6448 512.079C23.3958 524.677 33.0819 536.246 45.8788 536.246H151.732L130.97 652.513L133.924 653.041L130.97 652.513C128.721 665.111 138.408 676.68 151.204 676.68H210.643C215.468 676.68 220.139 674.983 223.838 671.885C227.538 668.788 230.029 664.488 230.877 659.738L252.932 536.246H391.124L370.363 652.513C368.112 665.111 377.798 676.68 390.597 676.68H450.035C454.86 676.68 459.531 674.983 463.23 671.885C466.93 668.788 469.421 664.488 470.269 659.738L492.322 536.246H605.516C610.341 536.246 615.012 534.548 618.712 531.451C622.411 528.354 624.903 524.054 625.751 519.304L636.2 460.79C638.449 448.192 628.763 436.623 615.966 436.623H510.113L542.478 255.377H655.672C660.497 255.377 665.168 253.68 668.867 250.582C672.566 247.485 675.058 243.185 675.906 238.435L686.355 179.921ZM441.28 255.377L408.914 436.623H270.722L303.087 255.377H441.28Z" stroke="white" stroke-width="6"/>
</g>
<defs>
<filter id="filter0_d_1_3" x="0.318335" y="0.320007" width="705.363" height="705.36" filterUnits="userSpaceOnUse" color-interpolation-filters="sRGB">
<feFlood flood-opacity="0" result="BackgroundImageFix"/>
<feColorMatrix in="SourceAlpha" type="matrix" values="0 0 0 0 0 0 0 0 0 0 0 0 0 0 0 0 0 0 127 0" result="hardAlpha"/>
<feOffset dx="-3" dy="7"/>
<feGaussianBlur stdDeviation="9.5"/>
<feComposite in2="hardAlpha" operator="out"/>
<feColorMatrix type="matrix" values="0 0 0 0 0 0 0 0 0 0 0 0 0 0 0 0 0 0 1 0"/>
<feBlend mode="normal" in2="BackgroundImageFix" result="effect1_dropShadow_1_3"/>
<feBlend mode="normal" in="SourceGraphic" in2="effect1_dropShadow_1_3" result="shape"/>
</filter>
<linearGradient id="paint0_linear_1_3" x1="6.00001" y1="18" x2="854.5" y2="810" gradientUnits="userSpaceOnUse">
<stop offset="0.0816886" stop-color="#FF5B5B"/>
<stop offset="0.381419" stop-color="#FA5FF6"/>
<stop offset="0.927083" stop-color="#8F00FF"/>
</linearGradient>
</defs>
</svg>
